<?xml version="1.0" standalone="no"?>
<!DOCTYPE svg PUBLIC "-//W3C//DTD SVG 20010904//EN"
 "http://www.w3.org/TR/2001/REC-SVG-20010904/DTD/svg10.dtd">
<svg version="1.0" xmlns="http://www.w3.org/2000/svg"
 width="50.000000pt" height="50.000000pt" viewBox="0 0 50.000000 50.000000"
 preserveAspectRatio="xMidYMid meet">

<g transform="translate(0.000000,50.000000) scale(0.100000,-0.100000)"
fill="#000000" stroke="none">
<path d="M189 473 c-6 -16 -51 -126 -100 -247 -50 -120 -88 -220 -85 -223 3
-3 215 80 474 187 29 12 28 20 -8 96 -38 79 -102 143 -182 183 -75 38 -86 38
-99 4z m103 -30 c75 -39 119 -86 162 -170 14 -29 26 -54 26 -57 0 -2 -13 -9
-29 -14 -27 -10 -30 -8 -46 28 -25 55 -92 125 -156 163 -52 31 -55 34 -46 60
5 15 11 27 14 27 3 0 36 -16 75 -37z m-46 -72 c28 -16 65 -46 82 -65 30 -35
77 -115 70 -121 -6 -5 -47 -25 -51 -25 -2 0 -2 24 0 54 2 38 -1 57 -11 65 -24
20 -50 8 -69 -33 -23 -48 -16 -83 19 -92 19 -5 22 -9 12 -15 -23 -15 -36 -10
-42 15 -11 46 -81 46 -92 0 -4 -14 -2 -30 5 -37 17 -17 14 -27 -11 -36 -13 -5
-47 -18 -75 -30 l-53 -21 13 33 c11 25 19 31 36 29 47 -7 69 44 31 71 -19 13
-19 16 -5 50 14 34 17 36 40 25 52 -23 102 31 76 81 -7 11 -22 23 -36 27 -21
5 -22 9 -13 30 6 13 14 24 17 24 3 0 29 -13 57 -29z m-42 -63 c23 -37 -35 -77
-63 -45 -9 12 -9 21 1 41 13 30 44 32 62 4z m123 -55 c3 -7 -4 -9 -16 -6 -12
3 -18 9 -15 15 7 11 26 6 31 -9z m-2 -53 c0 -18 -6 -26 -23 -28 -13 -2 -25 3
-28 12 -10 26 4 48 28 44 17 -2 23 -10 23 -28z m-90 -60 c0 -18 -6 -26 -23
-28 -13 -2 -25 3 -28 12 -10 26 4 48 28 44 17 -2 23 -10 23 -28z m-129 -1 c10
-17 -13 -36 -27 -22 -12 12 -4 33 11 33 5 0 12 -5 16 -11z"/>
</g>
</svg>
